<?xml version="1.0" standalone="no"?>
<!DOCTYPE svg PUBLIC "-//W3C//DTD SVG 20010904//EN"
 "http://www.w3.org/TR/2001/REC-SVG-20010904/DTD/svg10.dtd">
<svg version="1.0" xmlns="http://www.w3.org/2000/svg"
 width="234.000000pt" height="233.000000pt" viewBox="0 0 234.000000 233.000000"
 preserveAspectRatio="xMidYMid meet">

<g transform="translate(0.000000,233.000000) scale(0.100000,-0.100000)"
fill="#000000" stroke="none">
<path d="M1607 2269 c-15 -11 -32 -37 -38 -58 -9 -32 -8 -44 6 -75 10 -20 26
-41 36 -47 26 -14 25 -83 -1 -127 -33 -53 -87 -72 -210 -72 -138 0 -174 -11
-230 -69 -54 -55 -70 -101 -70 -200 l0 -71 39 0 39 0 3 79 c4 88 19 118 79
159 29 19 45 22 144 22 61 0 126 4 145 10 87 25 161 116 161 198 0 31 8 49 35
82 29 34 35 50 35 87 0 36 -6 50 -29 74 -37 37 -104 41 -144 8z"/>
<path d="M200 2043 c-41 -21 -77 -71 -86 -119 -9 -47 29 -122 79 -153 l37 -24
0 -246 c0 -218 3 -251 19 -286 33 -72 120 -135 186 -135 23 0 25 4 25 40 0 31
-4 40 -17 40 -33 0 -96 45 -114 80 -17 31 -19 60 -19 275 l0 240 33 15 c68 32
100 137 62 210 -35 67 -137 98 -205 63z m115 -88 c14 -13 25 -36 25 -50 0 -30
-41 -75 -68 -75 -11 0 -31 9 -46 21 -36 28 -36 80 0 108 35 27 59 26 89 -4z"/>
<path d="M2050 1833 c-19 -10 -45 -34 -58 -53 l-23 -35 -107 -5 c-88 -5 -114
-10 -144 -28 -43 -27 -74 -72 -83 -124 l-7 -38 39 0 c37 0 41 3 56 40 20 52
61 70 161 70 l75 0 28 -41 c38 -57 85 -81 146 -76 143 12 192 193 75 280 -37
28 -114 33 -158 10z m117 -85 c48 -45 18 -121 -47 -121 -67 0 -96 81 -44 122
34 27 62 27 91 -1z"/>
<path d="M621 1426 c-51 -28 -50 -17 -51 -683 l0 -621 26 -31 26 -31 748 0
749 0 28 24 28 24 3 245 3 245 -173 4 c-192 4 -210 9 -266 72 -41 47 -55 104
-50 202 5 92 22 130 81 178 l39 31 184 3 184 3 0 141 0 140 -34 34 -34 34
-733 0 c-590 -1 -739 -3 -758 -14z m1474 -1221 l0 -60 -722 -3 -723 -2 0 65 0
65 723 -2 722 -3 0 -60z"/>
<path d="M1838 984 c-40 -21 -48 -43 -48 -139 0 -82 1 -88 29 -116 l29 -29
187 0 187 0 29 29 c28 28 29 33 29 118 0 93 -10 118 -57 142 -35 18 -351 14
-385 -5z m120 -100 c26 -18 28 -41 5 -66 -20 -22 -41 -23 -65 -1 -23 21 -23
38 2 63 24 24 29 24 58 4z"/>
<path d="M74 836 c-46 -46 -48 -104 -5 -146 51 -52 113 -52 162 1 26 28 29 29
128 29 l101 0 0 40 0 40 -99 0 -99 0 -35 35 c-29 29 -42 35 -77 35 -34 0 -48
-6 -76 -34z"/>
<path d="M84 492 c-97 -78 -16 -231 101 -192 20 7 43 23 52 36 15 23 20 24
120 24 l104 0 -3 41 -3 42 -93 -2 -94 -2 -34 35 c-30 31 -41 36 -82 36 -29 0
-55 -7 -68 -18z"/>
</g>
</svg>
